<?xml version="1.0" encoding="UTF-8"?><svg id="Layer_1" xmlns="http://www.w3.org/2000/svg" viewBox="0 0 1667.92 58.19"><defs><style>.cls-1{fill:#ffcc30;}.cls-1,.cls-2,.cls-3,.cls-4{stroke-width:0px;}.cls-2{fill:#e73756;}.cls-3{fill:#4bae48;}.cls-4{fill:#e3edf3;}</style></defs><path class="cls-4" d="m6.75,0h1654.42c3.73,0,6.75,3.03,6.75,6.75v51.44H0V6.75C0,3.03,3.03,0,6.75,0Z"/><path class="cls-2" d="m46.14,29.1c0-6.42,5.2-11.62,11.62-11.62s11.62,5.2,11.62,11.62-5.2,11.62-11.62,11.62-11.62-5.2-11.62-11.62Z"/><circle class="cls-1" cx="109.33" cy="29.1" r="11.62"/><path class="cls-3" d="m149.28,29.1c0-6.42,5.2-11.62,11.62-11.62s11.62,5.2,11.62,11.62-5.2,11.62-11.62,11.62-11.62-5.2-11.62-11.62Z"/></svg>