<?xml version="1.0" encoding="UTF-8"?><svg id="Objects" xmlns="http://www.w3.org/2000/svg" viewBox="0 0 1790.27 934.29"><defs><style>.cls-1{fill:#6077f2;stroke-width:0px;}</style></defs><path class="cls-1" d="m1559.33,524.5c-5.71,8.43-5.81,19.89.59,28.55,8.11,10.97,23.58,13.3,34.56,5.19,27.22-20.12,53.13-43.19,77.01-68.57,9.33-9.95,8.87-25.58-1.07-34.93-9.94-9.35-25.58-8.87-34.93,1.07-21.85,23.23-45.53,44.32-70.39,62.69-2.31,1.71-4.25,3.75-5.77,6.01Z"/><path class="cls-1" d="m659.05,336.75c12.97-3.94,20.34-17.6,16.53-30.58-8.01-28.11-10.68-58.71-7.71-88.49,1.36-13.58-8.55-25.68-22.13-27.04-9.35-.93-18,3.47-22.93,10.74-2.23,3.29-3.69,7.16-4.11,11.39-3.59,35.92-.35,72.9,9.31,106.78.05.19.15.54.21.73,3.97,13.06,17.77,20.43,30.82,16.46Z"/><path class="cls-1" d="m1187.61,637.61c-2.63,3.88-4.19,8.56-4.24,13.6-.13,13.64,10.82,24.82,24.47,24.95,34.21.33,68.57-1.8,102.12-6.35,13.52-1.84,23-14.28,21.16-27.81-1.83-13.52-14.28-23-27.81-21.17-31.19,4.23-63.15,6.22-94.99,5.91-8.61-.09-16.22,4.24-20.71,10.87Z"/><path class="cls-1" d="m800.38,688.24c31.55-16.27,60.98-34.28,87.48-53.53,10.71-7.78,13.33-22.53,6.18-33.47,5.47,2.72,10.98,5.37,16.53,7.95,12.37,5.76,27.06.4,32.82-11.99,3.65-7.85,2.82-16.63-1.43-23.48,8.28,1.86,17.3-.61,23.51-7.27,24.12-25.89,45.05-54.12,62.06-83.66,6.81-11.83,2.74-26.93-9.09-33.74-11.83-6.81-26.93-2.74-33.74,9.09-15.14,26.29-33.82,51.47-55.39,74.62-7.52,8.08-8.6,19.87-3.43,29-26.93-12.84-52.97-27.53-77.47-43.74-11.3-7.48-26.5-4.45-34.08,6.74-.05.08-.11.16-.16.23-7.53,11.38-4.4,26.71,6.98,34.24,16.52,10.93,33.68,21.21,51.31,30.77-4.75.16-9.51,1.7-13.65,4.71-24.47,17.78-51.75,34.47-81.08,49.59-12.12,6.26-16.89,21.16-10.63,33.29,6.26,12.13,21.16,16.89,33.29,10.63Z"/><path class="cls-1" d="m919.76,67.29c12.51,5.44,27.08-.29,32.51-12.8,5.45-12.51-.28-27.07-12.8-32.52C905.4,7.15,868.66-.44,833.22.02c-8.4.11-15.77,4.4-20.15,10.86-2.73,4.04-4.31,8.92-4.24,14.17.18,13.64,11.38,24.56,25.03,24.38,28.49-.37,58.19,5.8,85.89,17.86Z"/><path class="cls-1" d="m1065.13,210.14c13.07-3.94,20.46-17.72,16.53-30.79-6.09-20.2-14.65-39.51-25.45-57.39-7.98-13.21-17.48-25.83-28.22-37.5-9.24-10.04-24.87-10.69-34.91-1.44-1.44,1.33-2.69,2.78-3.74,4.33-6.28,9.27-5.62,21.98,2.29,30.58,8.51,9.24,16.01,19.2,22.29,29.59,8.66,14.34,15.54,29.84,20.43,46.09,3.94,13.07,17.72,20.47,30.79,16.53Z"/><path class="cls-1" d="m775.19,494.53c9.38-9.92,8.96-25.55-.95-34.93-23.74-22.49-43.98-46.33-60.14-70.87-7.51-11.4-22.83-14.55-34.23-7.04-2.8,1.84-5.1,4.15-6.86,6.76-5.44,8.03-5.84,18.86-.18,27.46,18.25,27.7,40.93,54.47,67.42,79.56,9.91,9.38,25.55,8.96,34.93-.95Z"/><path class="cls-1" d="m1134.07,647.23c2.05-13.49-7.22-26.09-20.71-28.14-31.38-4.77-62.65-11.8-92.96-20.9-10.6-3.18-21.67,1.09-27.56,9.8-1.37,2.03-2.47,4.29-3.21,6.76-3.92,13.07,3.49,26.85,16.56,30.77,32.52,9.76,66.07,17.31,99.74,22.42,13.49,2.05,26.09-7.23,28.14-20.71Z"/><path class="cls-1" d="m389.81,759.84c-3.24,4.79-4.83,10.73-4.06,16.91,1.69,13.54,14.04,23.15,27.58,21.46,33.87-4.23,67.29-9.48,99.32-15.6,13.41-2.56,22.2-15.5,19.64-28.9-2.56-13.41-15.5-22.2-28.91-19.64-30.99,5.92-63.35,11-96.17,15.1-7.35.92-13.55,4.98-17.4,10.67Z"/><path class="cls-1" d="m1070.5,388.68c12.01-35.07,19.35-69.58,21.83-102.59,1.02-13.61-9.18-25.47-22.79-26.49-9.15-.69-17.52,3.7-22.32,10.8-2.34,3.45-3.83,7.54-4.17,11.99-2.16,28.81-8.66,59.19-19.3,90.28-4.42,12.91,2.46,26.96,15.37,31.38,12.91,4.42,26.95-2.47,31.38-15.37Z"/><path class="cls-1" d="m610.89,760.07c33.6-9.11,66.01-19.47,96.33-30.82,12.78-4.78,19.26-19.02,14.48-31.8-4.78-12.78-19.02-19.27-31.8-14.48-28.89,10.81-59.82,20.7-91.95,29.41-5.94,1.61-10.79,5.25-13.99,9.98-3.9,5.75-5.36,13.1-3.4,20.33,3.57,13.17,17.14,20.95,30.31,17.38Z"/><path class="cls-1" d="m1410.17,648.51c33.63-9.86,65.93-22.27,95.99-36.87,12.27-5.96,17.39-20.75,11.42-33.02-5.96-12.27-20.75-17.39-33.02-11.42-27.59,13.41-57.29,24.81-88.29,33.9-5.73,1.68-10.39,5.25-13.5,9.84-3.99,5.89-5.42,13.46-3.26,20.82,3.84,13.1,17.57,20.6,30.66,16.76Z"/><path class="cls-1" d="m1735.57,409.6l1.77-2.61c17.65-26.04,34.53-54.63,50.17-84.96,6.26-12.13,1.5-27.03-10.63-33.29-11.24-5.8-24.85-2.14-31.77,8.07-.55.81-1.06,1.66-1.52,2.56-14.75,28.59-30.62,55.47-47.2,79.94l-1.63,2.39-.06.09c-7.63,11.26-4.72,26.57,6.51,34.25,11.26,7.7,26.64,4.81,34.34-6.45Z"/><path class="cls-1" d="m693.61,133.43c12.82-22.93,29.69-41.92,49.75-56.01,2.82-1.98,5.76-3.9,8.74-5.69,11.69-7.04,15.47-22.22,8.44-33.91-7.04-11.69-22.22-15.47-33.91-8.44-3.98,2.39-7.91,4.95-11.68,7.6-20.91,14.69-39.05,33.27-53.93,55.23-3.71,5.48-7.26,11.24-10.54,17.12-6.66,11.91-2.4,26.97,9.52,33.62,11.91,6.66,26.96,2.41,33.62-9.52Z"/><path class="cls-1" d="m256.17,810.57c18.85-.63,37.97-1.57,57.21-2.84,13.62-.91,23.92-12.67,23.02-26.29-.9-13.62-12.67-23.92-26.29-23.02-18.25,1.21-36.38,2.11-54.25,2.72l-.77-122.5L0,788.09l256.95,146.21-.78-123.72Z"/></svg>