<?xml version="1.0" encoding="UTF-8"?>
<svg xmlns="http://www.w3.org/2000/svg" viewBox="0 0 500 500">
  <defs>
    <style>
      .cls-1 {
        stroke: #7b70ee;
        stroke-width: 2.15px;
      }

      .cls-1, .cls-2 {
        stroke-miterlimit: 10;
      }

      .cls-1, .cls-2, .cls-3 {
        fill: none;
      }

      .cls-4 {
        fill: #1c1c84;
      }

      .cls-4, .cls-5, .cls-6, .cls-3, .cls-7, .cls-8, .cls-9, .cls-10, .cls-11, .cls-12, .cls-13, .cls-14 {
        stroke-width: 0px;
      }

      .cls-2 {
        stroke: #2525ad;
        stroke-width: 1.9px;
      }

      .cls-5 {
        fill: #d5cbfb;
      }

      .cls-6 {
        fill: #f5f5ff;
      }

      .cls-7 {
        fill: #2525ad;
      }

      .cls-8 {
        fill: #f4e7bd;
      }

      .cls-9 {
        fill: #fff;
      }

      .cls-10 {
        fill: #7b70ee;
      }

      .cls-11 {
        fill: #0c0c5b;
      }

      .cls-12 {
        fill: #f0c64b;
      }

      .cls-13 {
        fill: #d8a32b;
      }

      .cls-14 {
        fill: #fff6dc;
      }
    </style>
  </defs>
  <g id="Background">
    <rect class="cls-9" width="500" height="500"/>
    <rect class="cls-3" width="500" height="500"/>
  </g>
  <g id="Objects">
    <g>
      <g>
        <path class="cls-6" d="m54.19,257.7c20.29,22.97,45.98,31.9,58.65,59.82,8.68,19.14,4.61,41.79,11.03,61.8,8.79,27.43,37.69,45.85,66.49,45.95,28.8.1,56.25-16.22,73.34-39.4,5.6-7.6,10.46-16.15,18.32-21.39,11.25-7.51,25.85-6.54,39.32-7.74,33.22-2.96,64.7-21.61,83.25-49.33,0,0,48.12-56.78,14.06-138.01-9.9-23.61-25.95-45.29-48.09-58.16-22.13-12.87-60.65-13.17-83.44-1.51-24.23,12.4-40.34,39.59-66.9,45.56-15.39,3.46-31.29-1.04-46.79-3.98-21.75-4.13-43.91-6.69-65.87-3.9-25.84,3.28-51.91,16.24-63.97,45.37-4.22,10.2-5.64,21.4-3.96,32.31,1.51,9.79,5.32,22.18,14.54,32.62Z"/>
        <path class="cls-6" d="m253.9,89.93c-5.59-7.01-14.29-10.84-22.99-13-12.01-2.98-24.92-3.2-36.57.96-11.65,4.17-21.86,13.05-26.16,24.65-4.3,11.6-1.93,25.79,6.98,34.37,4.99,4.81,12.01,7.39,18.9,7.38,4.09.44,8.27-.02,12.11-1.5,8.55-3.29,14.83-10.77,23.03-14.86,8.91-4.44,20.37-5.15,26.4-13.08,5.43-7.13,3.88-17.9-1.71-24.91Z"/>
        <path class="cls-6" d="m93.24,338.46c-.93-1.91-1.8-3.84-2.36-5.88-1.81-6.54-.5-14-4.01-19.81-4.41-7.29-15.27-8.62-22.66-4.38-7.39,4.25-11.62,12.55-13.42,20.88-1.11,5.13-1.43,10.59.32,15.54,2.04,5.75,6.69,10.22,11.76,13.62,5.64,3.78,12.22,6.55,19,6.32,3.02-.1,6.06-.9,8.75-2.31,2.12-.92,4-2.34,5.29-4.19.94-1.11,1.73-2.35,2.31-3.71,2.41-5.67.24-13.13-4.99-16.09Z"/>
      </g>
      <g>
        <g>
          <rect class="cls-10" x="145.11" y="194.89" width="218.97" height="143.09" rx="3.61" ry="3.61"/>
          <rect class="cls-5" x="150.53" y="205.3" width="208.13" height="118.81"/>
          <path class="cls-5" d="m255.9,199.67c0,.72-.59,1.31-1.31,1.31s-1.31-.59-1.31-1.31.59-1.31,1.31-1.31,1.31.59,1.31,1.31Z"/>
          <g>
            <path class="cls-5" d="m393.55,384.67l-26.9-42.81c-1.52-2.42-4.17-3.88-7.02-3.88h-210.07c-2.85,0-5.51,1.47-7.02,3.88l-26.9,42.81c-.76,1.21-1.03,2.65-.79,4.04h279.49c.24-1.39-.03-2.83-.79-4.04Z"/>
            <path class="cls-10" d="m114.85,388.71c.05.29.11.57.21.85l.42,1.27c.79,2.36,2.99,3.95,5.47,3.95h267.29c2.48,0,4.69-1.59,5.48-3.95l.42-1.27c.09-.28.16-.57.21-.85H114.85Z"/>
          </g>
          <g>
            <polygon class="cls-10" points="159.68 359.1 160.99 356.22 154.51 356.22 153.12 359.1 159.68 359.1"/>
            <polygon class="cls-10" points="171.1 350.9 171.74 349.4 172.33 348.02 166.06 348.02 164.75 350.9 171.1 350.9"/>
            <polygon class="cls-10" points="162.33 356.22 161.02 359.1 167.59 359.1 168.82 356.22 162.33 356.22"/>
            <polygon class="cls-10" points="161.54 355 162.85 352.12 156.48 352.12 155.1 355 161.54 355"/>
            <polygon class="cls-10" points="293.5 348.02 294.22 350.9 299.8 350.9 298.99 348.02 293.5 348.02"/>
            <polygon class="cls-10" points="193.5 356.22 192.62 359.1 199.25 359.1 200.09 356.22 193.5 356.22"/>
            <polygon class="cls-10" points="185.75 356.22 184.72 359.1 191.35 359.1 192.23 356.22 185.75 356.22"/>
            <polygon class="cls-10" points="177.97 356.22 176.82 359.1 183.42 359.1 184.46 356.22 177.97 356.22"/>
            <polygon class="cls-10" points="170.15 356.22 168.92 359.1 175.5 359.1 176.66 356.22 170.15 356.22"/>
            <polygon class="cls-10" points="300.26 348.02 301.06 350.9 306.27 350.9 305.43 348.02 300.26 348.02"/>
            <polygon class="cls-10" points="215.91 352.12 215.19 355 220.43 355 221.08 352.12 215.91 352.12"/>
            <polygon class="cls-10" points="272.76 348.02 273.25 350.9 279.3 350.9 278.73 348.02 272.76 348.02"/>
            <polygon class="cls-10" points="214.96 350.9 215.69 348.02 210.19 348.02 209.39 350.9 214.96 350.9"/>
            <polygon class="cls-10" points="208.12 350.9 208.92 348.02 203.76 348.02 202.92 350.9 208.12 350.9"/>
            <polygon class="cls-10" points="221.35 350.9 222 348.02 216.94 348.02 216.22 350.9 221.35 350.9"/>
            <polygon class="cls-10" points="306.7 348.02 307.54 350.9 314.05 350.9 313.17 348.02 306.7 348.02"/>
            <polygon class="cls-10" points="188.71 348.02 187.67 350.9 193.86 350.9 194.31 349.42 194.74 348.02 188.71 348.02"/>
            <polygon class="cls-10" points="186.37 350.9 187.41 348.02 181.25 348.02 180.1 350.9 186.37 350.9"/>
            <polygon class="cls-10" points="173.66 348.02 172.42 350.9 178.79 350.9 179.39 349.4 179.94 348.02 173.66 348.02"/>
            <polygon class="cls-10" points="287.19 348.02 287.84 350.9 292.97 350.9 292.24 348.02 287.19 348.02"/>
            <polygon class="cls-10" points="279.98 348.02 280.54 350.9 286.59 350.9 285.94 348.02 279.98 348.02"/>
            <polygon class="cls-10" points="201.65 350.9 202.49 348.02 196.01 348.02 195.13 350.9 201.65 350.9"/>
            <polygon class="cls-10" points="209.26 346.8 210.01 344.12 204.9 344.12 204.11 346.8 209.26 346.8"/>
            <polygon class="cls-10" points="202.84 346.8 203.63 344.12 197.2 344.12 196.38 346.8 202.84 346.8"/>
            <polygon class="cls-10" points="265.64 348.02 265.98 350.9 272.02 350.9 271.53 348.02 265.64 348.02"/>
            <polygon class="cls-10" points="229.45 346.8 229.98 344.12 224.12 344.12 223.52 346.8 229.45 346.8"/>
            <polygon class="cls-10" points="222.27 346.8 222.87 344.12 217.93 344.12 217.25 346.8 222.27 346.8"/>
            <polygon class="cls-10" points="215.99 346.8 216.67 344.12 211.28 344.12 210.53 346.8 215.99 346.8"/>
            <polygon class="cls-10" points="336.86 348.02 338.09 350.9 344.44 350.9 343.13 348.02 336.86 348.02"/>
            <polygon class="cls-10" points="172.85 346.8 174 344.12 167.83 344.12 166.61 346.8 172.85 346.8"/>
            <polygon class="cls-10" points="180.43 346.8 181.5 344.12 175.32 344.12 174.18 346.8 180.43 346.8"/>
            <polygon class="cls-10" points="195.11 346.8 195.93 344.12 190.11 344.12 189.14 346.8 195.11 346.8"/>
            <polygon class="cls-10" points="344.47 348.02 345.78 350.9 352.11 350.9 350.73 348.02 344.47 348.02"/>
            <polygon class="cls-10" points="187.85 346.8 188.81 344.12 182.82 344.12 181.74 346.8 187.85 346.8"/>
            <polygon class="cls-10" points="314.45 348.02 315.33 350.9 321.52 350.9 320.48 348.02 314.45 348.02"/>
            <polygon class="cls-10" points="228.83 356.22 228.26 359.1 234.53 359.1 235.02 356.22 228.83 356.22"/>
            <polygon class="cls-10" points="201.36 356.22 200.52 359.1 205.84 359.1 206.64 356.22 201.36 356.22"/>
            <polygon class="cls-10" points="221.4 356.22 220.76 359.1 227.02 359.1 227.59 356.22 221.4 356.22"/>
            <polygon class="cls-10" points="207.91 356.22 207.1 359.1 212.9 359.1 213.62 356.22 207.91 356.22"/>
            <polygon class="cls-10" points="214.88 356.22 214.16 359.1 219.51 359.1 220.15 356.22 214.88 356.22"/>
            <polygon class="cls-10" points="237.66 348.02 237.17 350.9 243.21 350.9 243.54 348.02 237.66 348.02"/>
            <polygon class="cls-10" points="236.63 346.8 237.09 344.12 231.22 344.12 230.69 346.8 236.63 346.8"/>
            <polygon class="cls-10" points="229.64 352.12 229.07 355 235.23 355 235.72 352.12 229.64 352.12"/>
            <polygon class="cls-10" points="329.25 348.02 330.4 350.9 336.76 350.9 335.53 348.02 329.25 348.02"/>
            <polygon class="cls-10" points="242.73 355 243.06 352.12 236.96 352.12 236.47 355 242.73 355"/>
            <polygon class="cls-10" points="321.78 348.02 322.81 350.9 329.08 350.9 327.93 348.02 321.78 348.02"/>
            <polygon class="cls-10" points="163.41 350.9 164.72 348.02 158.46 348.02 157.07 350.9 163.41 350.9"/>
            <polygon class="cls-10" points="302.08 359.1 301.28 356.22 295.56 356.22 296.29 359.1 302.08 359.1"/>
            <polygon class="cls-10" points="209.05 352.12 208.25 355 213.93 355 214.65 352.12 209.05 352.12"/>
            <polygon class="cls-10" points="312.8 346.8 311.98 344.12 305.56 344.12 306.34 346.8 312.8 346.8"/>
            <polygon class="cls-10" points="327.44 346.8 326.37 344.12 320.37 344.12 321.34 346.8 327.44 346.8"/>
            <polygon class="cls-10" points="320.04 346.8 319.08 344.12 313.26 344.12 314.08 346.8 320.04 346.8"/>
            <polygon class="cls-10" points="285.66 346.8 285.06 344.12 279.21 344.12 279.73 346.8 285.66 346.8"/>
            <polygon class="cls-10" points="278.49 346.8 277.96 344.12 272.1 344.12 272.56 346.8 278.49 346.8"/>
            <polygon class="cls-10" points="335.01 346.8 333.86 344.12 327.68 344.12 328.76 346.8 335.01 346.8"/>
            <polygon class="cls-10" points="298.65 346.8 297.91 344.12 292.52 344.12 293.19 346.8 298.65 346.8"/>
            <polygon class="cls-10" points="291.93 346.8 291.26 344.12 286.31 344.12 286.91 346.8 291.93 346.8"/>
            <polygon class="cls-10" points="295.03 359.1 294.3 356.22 289.03 356.22 289.68 359.1 295.03 359.1"/>
            <polygon class="cls-10" points="340.27 359.1 339.04 356.22 332.53 356.22 333.68 359.1 340.27 359.1"/>
            <polygon class="cls-10" points="324.47 359.1 323.43 356.22 316.96 356.22 317.84 359.1 324.47 359.1"/>
            <polygon class="cls-10" points="356.06 359.1 354.68 356.22 348.2 356.22 349.51 359.1 356.06 359.1"/>
            <polygon class="cls-10" points="348.17 359.1 346.86 356.22 340.36 356.22 341.59 359.1 348.17 359.1"/>
            <polygon class="cls-10" points="332.37 359.1 331.22 356.22 324.73 356.22 325.76 359.1 332.37 359.1"/>
            <polygon class="cls-10" points="288.43 359.1 287.78 356.22 281.6 356.22 282.16 359.1 288.43 359.1"/>
            <polygon class="cls-10" points="342.57 346.8 341.35 344.12 335.19 344.12 336.33 346.8 342.57 346.8"/>
            <polygon class="cls-10" points="353.47 350.9 359.32 350.9 357.69 348.02 352.08 348.02 353.47 350.9"/>
            <polygon class="cls-10" points="308.67 359.1 307.82 356.22 302.55 356.22 303.35 359.1 308.67 359.1"/>
            <polygon class="cls-10" points="350.14 346.8 348.85 344.12 342.69 344.12 343.91 346.8 350.14 346.8"/>
            <polygon class="cls-10" points="316.56 359.1 315.68 356.22 309.09 356.22 309.94 359.1 316.56 359.1"/>
            <polygon class="cls-10" points="357 346.8 355.48 344.12 350.2 344.12 351.49 346.8 357 346.8"/>
            <polygon class="cls-10" points="305.07 346.8 304.29 344.12 299.17 344.12 299.92 346.8 305.07 346.8"/>
            <polygon class="cls-10" points="265.7 359.1 265.37 356.22 259.05 356.22 259.16 359.1 265.7 359.1"/>
            <polygon class="cls-10" points="171.9 352.12 171.26 353.62 170.67 355 177.14 355 178.3 352.12 171.9 352.12"/>
            <polygon class="cls-10" points="272.72 355 272.23 352.12 266.12 352.12 266.46 355 272.72 355"/>
            <polygon class="cls-10" points="169.34 355 170.58 352.12 164.19 352.12 163.51 353.63 162.88 355 169.34 355"/>
            <polygon class="cls-10" points="223.25 348.02 222.6 350.9 228.64 350.9 229.21 348.02 223.25 348.02"/>
            <polygon class="cls-10" points="230.45 348.02 229.88 350.9 235.93 350.9 236.42 348.02 230.45 348.02"/>
            <polygon class="cls-10" points="194.76 352.12 193.88 355 200.45 355 201.29 352.12 194.76 352.12"/>
            <polygon class="cls-10" points="179.61 352.12 178.46 355 184.9 355 185.93 352.12 179.61 352.12"/>
            <polygon class="cls-10" points="202.56 352.12 201.72 355 206.98 355 207.78 352.12 202.56 352.12"/>
            <polygon class="cls-10" points="258.88 352.12 259 355 265.23 355 264.89 352.12 258.88 352.12"/>
            <polygon class="cls-10" points="187.23 352.12 186.19 355 192.6 355 193.48 352.12 187.23 352.12"/>
            <polygon class="cls-10" points="264.27 346.8 263.96 344.12 258.56 344.12 258.67 346.8 264.27 346.8"/>
            <polygon class="cls-10" points="280.92 359.1 280.35 356.22 274.16 356.22 274.65 359.1 280.92 359.1"/>
            <polygon class="cls-10" points="251.84 344.12 251.74 346.8 257.45 346.8 257.34 344.12 251.84 344.12"/>
            <polygon class="cls-10" points="251.69 348.02 251.57 350.9 257.61 350.9 257.5 348.02 251.69 348.02"/>
            <polygon class="cls-10" points="264.75 350.9 264.42 348.02 258.72 348.02 258.83 350.9 264.75 350.9"/>
            <polygon class="cls-10" points="271.32 346.8 270.86 344.12 265.19 344.12 265.5 346.8 271.32 346.8"/>
            <polygon class="cls-10" points="251.52 352.12 251.41 355 257.78 355 257.66 352.12 251.52 352.12"/>
            <polygon class="cls-10" points="251.36 356.22 251.24 359.1 257.94 359.1 257.83 356.22 251.36 356.22"/>
            <polygon class="cls-10" points="250.52 346.8 250.62 344.12 245.22 344.12 244.91 346.8 250.52 346.8"/>
            <polygon class="cls-10" points="237.87 346.8 243.68 346.8 244 344.12 238.32 344.12 237.87 346.8"/>
            <polygon class="cls-10" points="280.11 355 279.54 352.12 273.46 352.12 273.95 355 280.11 355"/>
            <polygon class="cls-10" points="222.33 352.12 221.68 355 227.83 355 228.4 352.12 222.33 352.12"/>
            <polygon class="cls-10" points="144.54 360.32 143.12 362.84 149.97 362.84 151.18 360.32 144.54 360.32"/>
            <polygon class="cls-10" points="307.47 355 306.63 352.12 301.4 352.12 302.21 355 307.47 355"/>
            <polygon class="cls-10" points="303.69 360.32 304.39 362.84 309.76 362.84 309.02 360.32 303.69 360.32"/>
            <polygon class="cls-10" points="294 355 293.27 352.12 288.11 352.12 288.76 355 294 355"/>
            <polygon class="cls-10" points="250.02 359.1 250.14 356.22 243.81 356.22 243.48 359.1 250.02 359.1"/>
            <polygon class="cls-10" points="326.2 360.32 327.11 362.84 333.87 362.84 332.86 360.32 326.2 360.32"/>
            <polygon class="cls-10" points="346.3 355 344.99 352.12 338.61 352.12 339.84 355 346.3 355"/>
            <polygon class="cls-10" points="334.17 360.32 335.18 362.84 341.87 362.84 340.79 360.32 334.17 360.32"/>
            <polygon class="cls-10" points="236.26 356.22 235.77 359.1 242.25 359.1 242.59 356.22 236.26 356.22"/>
            <polygon class="cls-10" points="146.86 356.22 145.23 359.1 151.77 359.1 153.15 356.22 146.86 356.22"/>
            <polygon class="cls-10" points="267.07 360.32 267.37 362.84 274.05 362.84 273.62 360.32 267.07 360.32"/>
            <polygon class="cls-10" points="168.4 360.32 167.32 362.84 174 362.84 175.01 360.32 168.4 360.32"/>
            <polygon class="cls-10" points="249.97 360.32 243.34 360.32 243.04 362.84 249.87 362.84 249.97 360.32"/>
            <polygon class="cls-10" points="338.51 355 337.28 352.12 330.89 352.12 332.04 355 338.51 355"/>
            <polygon class="cls-10" points="152.53 360.32 151.32 362.84 157.98 362.84 159.13 360.32 152.53 360.32"/>
            <polygon class="cls-10" points="280.79 352.12 281.36 355 287.51 355 286.86 352.12 280.79 352.12"/>
            <polygon class="cls-10" points="310.29 360.32 311.03 362.84 317.71 362.84 316.93 360.32 310.29 360.32"/>
            <polygon class="cls-10" points="282.41 360.32 282.9 362.84 289.27 362.84 288.7 360.32 282.41 360.32"/>
            <polygon class="cls-10" points="315.31 355 314.43 352.12 307.9 352.12 308.74 355 315.31 355"/>
            <polygon class="cls-10" points="322.99 355 321.96 352.12 315.7 352.12 316.58 355 322.99 355"/>
            <polygon class="cls-10" points="274.86 360.32 275.29 362.84 281.66 362.84 281.16 360.32 274.86 360.32"/>
            <polygon class="cls-10" points="318.21 360.32 318.98 362.84 325.81 362.84 324.91 360.32 318.21 360.32"/>
            <polygon class="cls-10" points="151.5 348.02 149.87 350.9 155.72 350.9 157.1 348.02 151.5 348.02"/>
            <polygon class="cls-10" points="350.06 360.32 351.21 362.84 357.87 362.84 356.65 360.32 350.06 360.32"/>
            <polygon class="cls-10" points="153.7 344.12 152.19 346.8 157.69 346.8 158.98 344.12 153.7 344.12"/>
            <polygon class="cls-10" points="330.73 355 329.57 352.12 323.25 352.12 324.29 355 330.73 355"/>
            <polygon class="cls-10" points="233.89 362.84 234.32 360.32 176.33 360.32 175.32 362.84 233.89 362.84"/>
            <polygon class="cls-10" points="289.95 360.32 290.52 362.84 295.97 362.84 295.34 360.32 289.95 360.32"/>
            <polygon class="cls-10" points="244.43 350.9 250.35 350.9 250.47 348.02 244.77 348.02 244.43 350.9"/>
            <polygon class="cls-10" points="362.32 356.22 356.03 356.22 359.22 362.84 366.07 362.84 362.32 356.22"/>
            <polygon class="cls-10" points="355.44 355 361.63 355 360 352.12 354.06 352.12 355.44 355"/>
            <polygon class="cls-10" points="354.09 355 352.7 352.12 346.33 352.12 347.64 355 354.09 355"/>
            <polygon class="cls-10" points="241.82 362.84 242.11 360.32 235.56 360.32 235.13 362.84 241.82 362.84"/>
            <polygon class="cls-10" points="251.19 360.32 251.09 362.84 266.14 362.84 265.85 360.32 251.19 360.32"/>
            <polygon class="cls-10" points="342.12 360.32 343.19 362.84 349.87 362.84 348.72 360.32 342.12 360.32"/>
            <polygon class="cls-10" points="300.94 355 300.14 352.12 294.53 352.12 295.26 355 300.94 355"/>
            <polygon class="cls-10" points="296.59 360.32 297.23 362.84 303.12 362.84 302.42 360.32 296.59 360.32"/>
            <polygon class="cls-10" points="149.18 352.12 147.55 355 153.74 355 155.13 352.12 149.18 352.12"/>
            <polygon class="cls-10" points="165.27 346.8 166.49 344.12 160.34 344.12 159.05 346.8 165.27 346.8"/>
            <polygon class="cls-10" points="160.46 360.32 159.32 362.84 165.99 362.84 167.07 360.32 160.46 360.32"/>
            <polygon class="cls-10" points="250.18 355 250.3 352.12 244.29 352.12 243.96 355 250.18 355"/>
            <polygon class="cls-10" points="272.93 356.22 266.6 356.22 266.93 359.1 273.42 359.1 272.93 356.22"/>
          </g>
          <path class="cls-10" d="m292.8,384.32h-76.42c-.33,0-.62-.15-.82-.41-.19-.26-.25-.59-.15-.9l4.86-15.79c.13-.43.52-.71.97-.71h66.7c.45,0,.84.29.97.71l4.86,15.79c.1.31.04.64-.15.9-.19.26-.49.41-.82.41Zm-71.56-16.91s-.09.03-.1.08l-4.86,15.79s0,.08.02.1c.02.02.04.04.09.04h76.42s.07-.02.09-.04c.01-.02.03-.05.02-.1l-4.86-15.79s-.06-.08-.1-.08h-66.7Z"/>
        </g>
        <g>
          <g>
            <g>
              <polygon class="cls-4" points="291.7 223.51 208.69 236.6 288.51 276.53 371.17 264.23 291.7 223.51"/>
              <polygon class="cls-7" points="208.69 236.6 208.69 238.5 288.57 280.24 371.17 266.05 371.17 264.23 288.51 276.53 208.69 236.6"/>
              <path class="cls-7" d="m239.57,281.52l-1.27,8.44s34.08,27.37,82.15,13.91l.74-6.59c-42.48,7.11-69.22-6.66-81.61-15.76Z"/>
              <g>
                <path class="cls-12" d="m340.77,325.96c-4.45-3.53-7.6-8.73-9.1-14.21-.11-.41-.65-.26-.72.09-.1-.13-.3-.15-.47-.07-.08-.28-.54-.41-.71-.07-3.05,5.91-.69,12.59,1.35,18.44.16.46.67.21.51-.25-1.6-4.58-3.31-9.7-2.33-14.53-.54,6.1,1.49,12.34,5.21,17.18.27.35.69-.07.42-.42-3.38-4.39-5.12-9.97-4.94-15.51.1,2.18.44,4.36,1.14,6.41,1.07,3.15,2.86,6.16,4.64,8.95.26.41.68-.01.42-.42-1.72-2.68-3.2-5.56-4.27-8.57-.46-1.29-.76-2.64-.95-4.01,1.03,4.44,3.17,8.6,6.25,11.99.32.36.75.04.42-.32-3.37-3.71-5.4-8.46-6.24-13.36,1.24,4.59,3.52,8.93,6.54,12.66.31.38.62-.03.31-.41-2.95-3.64-4.89-7.89-6.11-12.37,1.64,4.62,3.76,9.07,7.52,12.36.37.32.77-.05.4-.37-2.58-2.26-4.28-5.3-5.67-8.36,1.5,2.67,3.31,5.17,5.41,7.43.33.36.61-.21.28-.56-1.85-1.99-3.26-4.18-4.63-6.51,1.41,1.89,3.05,3.62,4.92,5.09.38.3.79.03.41-.27Z"/>
                <path class="cls-12" d="m332.95,262.06c-1.73-2.07-4.07-3.43-6.47-4.6-4.77-2.31-10.07-3.32-15.24-4.3-7.31-1.38-14.78-2.66-20.85-7.27-.24-.18-.46-.09-.6.09-.01.01-.02.02-.03.04,0,0,0,.01-.01.02-.15.18-.19.44.03.65,4.45,4.26,10.4,6.36,16.26,7.85,5.92,1.5,11.96,2.52,17.63,4.88.18.07.35.15.53.22.03.01.22.1.22.1.29.14.58.29.87.43,1.06.53,2.09,1.07,3.06,1.75,1.16.82,2.24,1.82,2.99,3.04.82,1.33,1.1,2.83,1.07,4.38-.03,1.61-.33,3.22-.59,4.8-.27,1.64-.51,3.29-.77,4.94-.52,3.41-1.01,6.81-1.38,10.24-.81,7.54-1.03,15.23.33,22.73.1.56,1.03.43.99-.13-.53-7.11.05-14.24,1.05-21.29.5-3.51,1.1-7,1.71-10.49.58-3.28,1.34-6.58,1.6-9.89.24-3.01-.45-5.85-2.41-8.19Z"/>
                <path class="cls-13" d="m329.62,312.59c.09-.04.17-.08.26-.12.05-.02.05-.02,0,0,.03,0,.05-.02.08-.03.04-.01.08-.03.12-.04.19-.06.38-.1.58-.13.05,0,.09-.02.14-.02-.13,0,.02,0,.05,0,.1,0,.19,0,.29,0,.1,0,.19,0,.29.02.05,0,.09,0,.14.02.03,0,.05,0,.08.01-.07-.01-.07-.01-.01,0,.14.03.26.03.39-.04.11-.06.21-.17.24-.29.06-.24-.05-.58-.33-.63-.95-.18-1.91-.07-2.78.36-.24.12-.34.45-.21.68.14.24.43.33.68.21h0Z"/>
                <path class="cls-13" d="m329.52,311.6c.09-.04.17-.08.26-.12.05-.02.05-.02,0,0,.03,0,.05-.02.08-.03.04-.01.08-.03.12-.04.19-.06.38-.1.58-.13.05,0,.09-.02.14-.02-.13,0,.02,0,.05,0,.1,0,.19,0,.29,0,.1,0,.19,0,.29.02.05,0,.09,0,.14.02.03,0,.05,0,.08.01-.07-.01-.07-.01-.01,0,.14.03.26.03.39-.04.11-.06.21-.17.24-.29.06-.24-.05-.58-.33-.63-.95-.18-1.91-.07-2.78.36-.24.12-.34.45-.21.68.14.24.43.33.68.21h0Z"/>
              </g>
            </g>
            <g>
              <polygon class="cls-11" points="323.67 277.42 324.09 274.14 288.57 280.24 243.85 256.87 242.89 262.39 287.67 284.93 323.67 277.42"/>
              <path class="cls-4" d="m287.67,284.93l-44.78-22.55-3.32,19.13c12.39,9.09,39.13,22.86,81.61,15.76l2.49-19.86-36,7.51Z"/>
            </g>
          </g>
          <g>
            <g>
              <path class="cls-14" d="m233.39,310.89c1.98,5.34-2.28,11.84-9.51,14.53-7.24,2.69-11.36-.7-14.26-5.61-4.23-7.17-.15-11.04,7.08-13.73,7.24-2.69,14.71-.53,16.69,4.8Z"/>
              <path class="cls-9" d="m161.14,252.09s17.95,18.49,32.67,51.68c0,0,6.98,18.02,11.56,22.52,0,0-3.71-4.17,1.95-10.84,4.16-4.9,10.22-7.9,16.63-8.12,3.59-.13,7.33.62,9.46,3.64,0,0-23.95-28.21-39.59-52.55-6.25-9.72-9.21-17.76-10.51-23.9,0,0-1.18-1.39-3.53-2.55-8.64-4.27-18.81,1.48-20.32,10.99-.14.89-.23,1.83-.25,2.84,0,0-.12,4.22,1.93,6.29Z"/>
              <path class="cls-8" d="m205.36,326.29s7.86,9.48,25.66-1.9c0,0,11.02-7.35,5.52-20.15,0,0-11.42-8.52-20.43-19.31s-20.15-25.49-29.39-44.93l-2.36-1.43s1.7,9.22,12.7,24.75c11,15.53,31.3,41.54,31.3,41.54l3.1,3.74c1.78,2.15,2.39,5.1,1.41,7.71-1.4,3.72-5.52,8.12-17,8.79l-7.17-11.13s-6.96,5.77-3.33,12.32Z"/>
              <path class="cls-9" d="m222.74,292.15s-20.63-21.51-35.09-55.56c0,0-2.61-4.14-4.27-6.06,0,0,12.57,38.85,39.35,61.61Z"/>
            </g>
            <path class="cls-12" d="m184.81,285.91c4.34-7.83,13.72-13,22.64-12.56,3.18.16,3.17-3.79,0-3.95-10.59-.53-21.08,4.75-26.22,14.01,0,0,2.03,5.28,3.57,2.49h0Z"/>
          </g>
        </g>
      </g>
      <g>
        <rect class="cls-7" x="102.61" y="259.7" width="60" height="40.6" rx="9.76" ry="9.76"/>
        <polygon class="cls-5" points="126.17 280 126.17 272.56 132.61 276.28 139.05 280 132.61 283.72 126.17 287.44 126.17 280"/>
      </g>
      <g>
        <g>
          <g>
            <path class="cls-9" d="m120.89,210.76c0-12.4-10.05-22.44-22.44-22.44s-22.44,10.05-22.44,22.44c0,8.98,5.28,16.73,12.9,20.32v7.16h19.08v-7.16c7.62-3.59,12.9-11.33,12.9-20.32Z"/>
            <path class="cls-12" d="m108.6,241.93h-20.31c-1.02,0-1.85-.83-1.85-1.85h0c0-1.02.83-1.85,1.85-1.85h20.31c1.02,0,1.85.83,1.85,1.85h0c0,1.02-.83,1.85-1.85,1.85Z"/>
            <path class="cls-12" d="m91.02,243.78h14.84v1.23c0,4.1-3.32,7.42-7.42,7.42h0c-4.1,0-7.42-3.32-7.42-7.42v-1.23h0Z"/>
            <path class="cls-13" d="m108.6,245.63h-20.31c-1.02,0-1.85-.83-1.85-1.85h0c0-1.02.83-1.85,1.85-1.85h20.31c1.02,0,1.85.83,1.85,1.85h0c0,1.02-.83,1.85-1.85,1.85Z"/>
          </g>
          <path class="cls-12" d="m100.49,238.23h-1.05v-31.18c0-.55-.44-.99-.99-.99s-.99.44-.99.99v31.18h-1.05v-31.18c0-1.13.92-2.04,2.04-2.04s2.04.92,2.04,2.04v31.18Z"/>
        </g>
        <g>
          <path class="cls-10" d="m63.17,203.11l-.62,3.21,9.38,1.8c.13-1.1.32-2.17.57-3.22l-9.34-1.79Z"/>
          <path class="cls-10" d="m70.6,188.31l-1.98,2.61,7.48,5.66c.6-.92,1.25-1.79,1.96-2.62l-7.46-5.65Z"/>
          <path class="cls-10" d="m83.71,178.32l-2.92,1.47,4.21,8.34c.94-.55,1.91-1.04,2.92-1.48l-4.2-8.33Z"/>
          <path class="cls-10" d="m134.34,206.32l-.62-3.21-9.34,1.79c.25,1.05.45,2.13.57,3.22l9.38-1.8Z"/>
          <path class="cls-10" d="m128.27,190.92l-1.98-2.61-7.46,5.65c.7.83,1.36,1.71,1.96,2.62l7.48-5.66Z"/>
          <path class="cls-10" d="m116.1,179.79l-2.92-1.47-4.2,8.33c1.01.43,1.98.93,2.92,1.48l4.21-8.34Z"/>
          <path class="cls-10" d="m100.12,184.55l-.08-9.49-3.27.03.08,9.46c.53-.03,1.06-.05,1.6-.05s1.12.02,1.67.06Z"/>
        </g>
      </g>
      <g>
        <g>
          <rect class="cls-12" x="335.12" y="382.18" width="94.85" height="18.7"/>
          <g>
            <g>
              <rect class="cls-13" x="340.46" y="382.18" width="3.82" height="18.7"/>
              <rect class="cls-13" x="346.2" y="382.18" width="3.82" height="18.7"/>
            </g>
            <g>
              <rect class="cls-13" x="415.08" y="382.18" width="3.82" height="18.7"/>
              <rect class="cls-13" x="420.81" y="382.18" width="3.82" height="18.7"/>
            </g>
          </g>
        </g>
        <g>
          <g>
            <path class="cls-9" d="m439.1,371.76v-2.88c0-4.09-3.33-7.42-7.42-7.42h-84.54v17.71h84.54c4.09,0,7.42-3.33,7.42-7.42Z"/>
            <path class="cls-7" d="m431.68,358.35h-85.09v3.12h85.09c4.09,0,7.42,3.33,7.42,7.42v2.88c0,4.09-3.33,7.42-7.42,7.42h-85.09v3.12h85.09c5.81,0,10.53-4.72,10.53-10.53v-2.88c0-5.81-4.72-10.53-10.53-10.53Z"/>
          </g>
          <g>
            <rect class="cls-6" x="347.15" y="365.43" width="86.19" height="1.42"/>
            <rect class="cls-6" x="347.15" y="369.69" width="86.19" height="1.42"/>
            <rect class="cls-6" x="347.15" y="373.96" width="86.19" height="1.42"/>
          </g>
        </g>
        <g>
          <g>
            <path class="cls-9" d="m339.9,348.98v-2.59c0-3.68,3-6.68,6.68-6.68h76.12v15.94h-76.12c-3.68,0-6.68-3-6.68-6.68Z"/>
            <path class="cls-12" d="m346.58,336.9h76.62v2.81h-76.62c-3.68,0-6.68,3-6.68,6.68v2.59c0,3.68,3,6.68,6.68,6.68h76.62v2.81h-76.62c-5.23,0-9.48-4.25-9.48-9.48v-2.59c0-5.23,4.25-9.48,9.48-9.48Z"/>
          </g>
          <g>
            <rect class="cls-6" x="345.09" y="343.28" width="77.61" height="1.28" transform="translate(767.79 687.83) rotate(180)"/>
            <rect class="cls-6" x="345.09" y="347.12" width="77.61" height="1.28" transform="translate(767.79 695.52) rotate(180)"/>
            <rect class="cls-6" x="345.09" y="350.96" width="77.61" height="1.28" transform="translate(767.79 703.2) rotate(180)"/>
          </g>
        </g>
      </g>
      <g>
        <g>
          <g>
            <g>
              <path class="cls-12" d="m186.96,138.06h0c3.58,0,6.49,2.82,6.49,6.29v.96c1.3,3.67,2.1,8.45,2.1,13.69s-.79,10.02-2.1,13.69v.96c0,3.47-2.9,6.29-6.49,6.29h0c-4.74,0-8.59-9.37-8.59-20.93s3.84-20.93,8.59-20.93Z"/>
              <path class="cls-13" d="m181.29,159.27c0,7.07.55,12.81,1.22,12.81s1.22-5.73,1.22-12.81-.55-12.81-1.22-12.81-1.22,5.73-1.22,12.81Z"/>
            </g>
            <path class="cls-10" d="m202.53,149.51v19.51c-.44,4.83-4.88,9.3-10.83,10.91v-41.33c5.95,1.62,10.39,6.09,10.83,10.91Z"/>
            <path class="cls-7" d="m191.7,182.17h0c.97,0,1.76-.77,1.76-1.71v-42.4c0-.94-.79-1.71-1.76-1.71h0c-.97,0-1.76.77-1.76,1.71v42.4c0,.94.79,1.71,1.76,1.71Z"/>
          </g>
          <g>
            <g>
              <path class="cls-12" d="m153.26,138.06h0c-3.58,0-6.49,2.82-6.49,6.29v.96c-1.3,3.67-2.1,8.45-2.1,13.69s.79,10.02,2.1,13.69v.96c0,3.47,2.9,6.29,6.49,6.29h0c4.74,0,8.59-9.37,8.59-20.93s-3.84-20.93-8.59-20.93Z"/>
              <path class="cls-13" d="m158.93,159.27c0,7.07-.55,12.81-1.22,12.81s-1.22-5.73-1.22-12.81.55-12.81,1.22-12.81,1.22,5.73,1.22,12.81Z"/>
            </g>
            <path class="cls-10" d="m137.69,149.51v19.51c.44,4.83,4.88,9.3,10.83,10.91v-41.33c-5.95,1.62-10.39,6.09-10.83,10.91Z"/>
            <path class="cls-7" d="m148.52,182.17h0c-.97,0-1.76-.77-1.76-1.71v-42.4c0-.94.79-1.71,1.76-1.71h0c.97,0,1.76.77,1.76,1.71v42.4c0,.94-.79,1.71-1.76,1.71Z"/>
          </g>
        </g>
        <g>
          <path class="cls-10" d="m191.86,112.26c-3.52-2.91-8.13-4.74-12.51-5.82-4.49-1.1-9.19-1.39-13.78-.85-1.39.16-2.77.38-4.13.67-.93.2-1.96.35-2.83.76-.91.43-1.79.9-2.69,1.36-2.43,1.22-4.85,2.45-7.28,3.67-.97.49-.85,1.9,0,2.42,2.24,1.36,4.81,1.53,7.35,1.13,1.79-.28,3.42-.95,5.11-1.54,3.04-1.05,6.34-1.57,9.55-1.59,2.87-.01,5.77.42,8.42,1.55,3.92,1.69,8.61,2.81,12.5.44.71-.43,1-1.61.28-2.2Z"/>
          <path class="cls-7" d="m170.72,104.04v-.03c-.2,0-.4.01-.61.02-.2,0-.41-.02-.61-.02v.03c-20.2.64-36.38,17.21-36.38,37.57v22.82c0,2.53,2.05,4.59,4.59,4.59v-22.5l-.1-.59c-1.55-9.12.43-18.62,6-26.01,2.6-3.45,6.12-6.7,10.89-9.05.06-.03.11-.06.17-.08,9.71-4.74,21.18-4.74,30.89,0,.06.03.11.06.17.08,4.8,2.36,8.33,5.64,10.94,9.11,5.53,7.38,7.49,16.86,5.95,25.95l-.1.58v22.5c2.53,0,4.59-2.05,4.59-4.59v-22.82c0-20.36-16.18-36.93-36.39-37.57Z"/>
        </g>
      </g>
      <g>
        <g>
          <rect class="cls-5" x="388.47" y="185.82" width="59.67" height="86.29"/>
          <g>
            <rect class="cls-10" x="394.91" y="198.48" width="46.79" height="1.91"/>
            <rect class="cls-10" x="394.91" y="207.24" width="46.79" height="1.91"/>
            <rect class="cls-10" x="394.91" y="216.01" width="46.79" height="1.91"/>
            <rect class="cls-10" x="394.91" y="224.78" width="46.79" height="1.91"/>
            <rect class="cls-10" x="394.91" y="233.55" width="46.79" height="1.91"/>
            <rect class="cls-10" x="394.91" y="242.31" width="46.79" height="1.91"/>
          </g>
          <rect class="cls-9" x="394.91" y="263.61" width="46.79" height=".53"/>
          <path class="cls-10" d="m401.31,255.32c2.39.4,4.82.52,7.23.31,2.23-.19,4.6-.57,6.68-1.43,1.48-.61,3.1-2.29,2.06-3.98-.92-1.49-3.21-1.64-4.74-1.28-1.78.42-3.36,1.59-4.44,3.04-1.08,1.45-1.83,3.55-.55,5.12,1.18,1.45,3.35,1.74,5.09,1.5.98-.14,1.93-.46,2.79-.96.4-.23.77-.51,1.13-.8.46-.38.95-.89,1.58-.98.75-.1.93.46,1.4.88.33.29.76.38,1.19.34.53-.05,1.01-.28,1.5-.47.62-.24,1.23-.33,1.89-.31,2.85.07,5.71.45,8.55.68.51.04.5-.43,0-.47-2.11-.17-4.22-.66-6.34-.83-.96-.08-1.96-.23-2.92-.15-.91.07-1.64.55-2.51.73-.98.21-1.11-.78-1.9-1.08-.7-.27-1.46-.04-2.06.36-.73.48-1.32,1.12-2.09,1.54-.87.47-1.85.75-2.84.81-1.6.1-3.98-.39-4.32-2.28-.31-1.73,1.13-3.51,2.37-4.53,1.28-1.05,3.01-1.74,4.68-1.43.8.15,1.83.52,2.03,1.41.23,1.04-.69,1.88-1.53,2.29-.97.48-2.1.72-3.16.96-1.17.26-2.36.45-3.55.55-2.34.2-4.7.32-7.02-.07-.5-.08-.71.47-.21.55h0Z"/>
        </g>
        <g>
          <path class="cls-5" d="m461.55,226.9h6.87c1.4,0,2.53,1.14,2.53,2.53v6.47h-11.93v-6.47c0-1.4,1.14-2.53,2.53-2.53Z" transform="translate(166.65 -193.75) rotate(28.48)"/>
          <rect class="cls-7" x="440.99" y="232.85" width="11.93" height="63.53" transform="translate(180.31 -181.14) rotate(28.49)"/>
          <rect class="cls-4" x="444.83" y="232.85" width="4.26" height="63.53" transform="translate(180.31 -181.13) rotate(28.48)"/>
          <rect class="cls-12" x="455.4" y="234.01" width="14.77" height="2.86" transform="translate(168.31 -192.22) rotate(28.48)"/>
          <g>
            <polygon class="cls-5" points="437.06 295.38 426.57 289.69 425.5 299.2 429.66 301.46 437.06 295.38"/>
            <polygon class="cls-7" points="429.66 301.46 425.5 299.2 424.81 305.44 429.66 301.46"/>
          </g>
        </g>
      </g>
      <g>
        <g>
          <line class="cls-1" x1="92.97" y1="141.24" x2="103.7" y2="151.98"/>
          <line class="cls-1" x1="103.91" y1="141.24" x2="93.18" y2="151.98"/>
        </g>
        <g>
          <line class="cls-1" x1="454.04" y1="302.23" x2="464.77" y2="312.96"/>
          <line class="cls-1" x1="464.99" y1="302.23" x2="454.25" y2="312.96"/>
        </g>
        <g>
          <line class="cls-2" x1="62.68" y1="264.62" x2="72.18" y2="274.12"/>
          <line class="cls-2" x1="72.38" y1="264.62" x2="62.87" y2="274.12"/>
        </g>
        <path class="cls-1" d="m57.64,185.82c0,4.29-3.48,7.77-7.77,7.77s-7.77-3.48-7.77-7.77,3.48-7.77,7.77-7.77,7.77,3.48,7.77,7.77Z"/>
        <circle class="cls-1" cx="361.63" cy="172.07" r="7.77"/>
        <path class="cls-2" d="m397.07,161.24c0,1.09-.88,1.97-1.97,1.97s-1.97-.88-1.97-1.97.88-1.97,1.97-1.97,1.97.88,1.97,1.97Z"/>
        <path class="cls-2" d="m206.72,95.42c0,1.09-.88,1.97-1.97,1.97s-1.97-.88-1.97-1.97.88-1.97,1.97-1.97,1.97.88,1.97,1.97Z"/>
      </g>
      <g>
        <path class="cls-7" d="m80.77,345.92v4.67c-6.27.35-11.27,5.55-11.27,11.91v3.97c0,6.52,5.25,11.82,11.73,11.94,2.36,12.78,13.55,22.47,27.01,22.47h0c15.18,0,27.48-12.3,27.48-27.48v-27.48h-54.96Zm-7.41,20.55v-3.97c0-4.23,3.27-7.71,7.41-8.05v18.95c0,.38.01.75.03,1.13-4.16-.33-7.44-3.81-7.44-8.05Z"/>
        <path class="cls-5" d="m122.04,314.64c-3.5-1.8-8.09-.95-10.9,1.8-.5-4.01-4.31-7.04-8.31-7.64-4-.6-8.05.8-11.56,2.81-3.44,1.97-6.65,4.7-8.09,8.39s-.63,8.45,2.63,10.7c1.33.91,3.02,1.17,4.6.9.21,1.26.71,2.45,1.52,3.45,2.72,3.31,8.34,3.64,11.43.67,2.34,2.07,5.94,2.6,8.78,1.28.62-.29,1.19-.66,1.71-1.1-.21,2.75-1.25,5.44-3.01,7.57,3.41-1.19,6.32-3.73,7.96-6.94,1.07-2.11,1.58-4.49,1.51-6.86,2.65-.51,5.09-2.45,5.95-5.05,1.24-3.73-.74-8.18-4.23-9.98Z"/>
      </g>
      <g>
        <path class="cls-7" d="m245.36,149.69h0c-.14-.01-.29-.02-.44-.02-2.92,0-5.3,2.38-5.3,5.3s2.38,5.3,5.3,5.3c.15,0,.3,0,.43-.02,2.73-.22,4.87-2.55,4.87-5.28s-2.13-5.06-4.86-5.28Z"/>
        <path class="cls-7" d="m263.94,154.98c0-.92-.36-1.78-1.01-2.43-.65-.65-1.51-1.01-2.43-1.01h-1.96l-.2-.66c-.26-.87-.61-1.71-1.04-2.51l-.33-.61,1.39-1.39c1.34-1.34,1.34-3.51,0-4.85-.65-.65-1.51-1-2.43-1s-1.78.36-2.43,1l-1.39,1.39-.61-.33c-.8-.43-1.64-.78-2.51-1.04l-.66-.2v-1.96c0-1.63-1.16-3.04-2.75-3.36-.22-.05-.45-.07-.68-.07-.92,0-1.78.36-2.43,1.01-.65.65-1.01,1.51-1.01,2.43v1.96l-.66.2c-.87.26-1.71.61-2.51,1.04l-.61.33-1.39-1.39c-1.34-1.34-3.51-1.34-4.85,0-.65.65-1,1.51-1,2.43s.36,1.78,1,2.43l1.39,1.39-.33.61c-.43.8-.78,1.64-1.04,2.51l-.2.66h-1.96c-1.89,0-3.43,1.54-3.43,3.43,0,.92.36,1.78,1.01,2.43.65.65,1.51,1.01,2.43,1.01h1.96l.2.66c.26.87.61,1.71,1.04,2.51l.33.61-1.39,1.39c-1.34,1.34-1.34,3.51,0,4.85.65.65,1.51,1,2.43,1s1.78-.36,2.43-1l1.39-1.39.61.33c.8.43,1.64.78,2.51,1.04l.66.2v1.96c0,1.89,1.54,3.43,3.43,3.43.22,0,.45-.02.67-.06l.1-.02c.63-.14,1.2-.46,1.65-.92.65-.65,1.01-1.51,1.01-2.43v-1.96l.66-.2c.87-.26,1.71-.61,2.51-1.04l.61-.33,1.39,1.39c.65.65,1.51,1,2.43,1s1.78-.36,2.43-1c.65-.65,1-1.51,1-2.43s-.36-1.78-1-2.43l-1.39-1.39.33-.61c.43-.8.78-1.64,1.04-2.51l.2-.66h1.96c1.89,0,3.43-1.54,3.43-3.43Zm-11.93,6.57c-1.65,1.78-3.88,2.87-6.3,3.07-.26.02-.53.03-.8.03-5.33,0-9.67-4.34-9.67-9.67s4.34-9.67,9.67-9.67c.27,0,.55.01.81.03,2.4.2,4.64,1.29,6.29,3.07,1.66,1.79,2.57,4.12,2.57,6.57s-.91,4.78-2.57,6.57Z"/>
      </g>
      <g>
        <path class="cls-7" d="m392.19,304.38h0c-.04.09-.08.18-.11.27-.69,1.78.21,3.79,1.99,4.47,1.78.69,3.79-.21,4.47-1.99.04-.09.07-.18.09-.27.5-1.72-.41-3.56-2.08-4.21-1.67-.64-3.58.11-4.36,1.72Z"/>
        <path class="cls-7" d="m399.77,294.29c-.56-.21-1.17-.2-1.71.04-.55.24-.97.68-1.18,1.24l-.46,1.2-.45-.03c-.59-.04-1.18-.03-1.77.05l-.45.06-.52-1.17c-.5-1.13-1.83-1.64-2.96-1.14-.55.24-.97.68-1.18,1.24-.21.56-.2,1.17.04,1.71l.52,1.17-.34.3c-.45.39-.86.82-1.22,1.28l-.28.36-1.2-.46c-.99-.38-2.12,0-2.69.89-.08.13-.15.26-.2.4-.21.56-.2,1.17.04,1.71.24.55.68.97,1.24,1.18l1.2.46-.03.45c-.04.59-.03,1.18.04,1.77l.06.45-1.17.52c-1.13.5-1.64,1.83-1.14,2.96.24.55.68.97,1.24,1.18.56.21,1.17.2,1.71-.04l1.17-.52.3.34c.39.45.82.86,1.28,1.22l.36.28-.46,1.2c-.44,1.15.13,2.45,1.29,2.9.56.21,1.17.2,1.71-.04.55-.24.97-.68,1.18-1.24l.46-1.2.45.03c.59.04,1.18.03,1.77-.05l.45-.06.52,1.17c.5,1.13,1.83,1.64,2.96,1.14.55-.24.97-.68,1.18-1.24.21-.56.2-1.17-.04-1.71l-.52-1.17.34-.3c.45-.39.86-.82,1.22-1.28l.28-.36,1.2.46c1.15.44,2.45-.13,2.9-1.29.05-.14.09-.28.12-.42v-.07c.07-.41.01-.84-.16-1.22-.24-.55-.68-.97-1.24-1.18l-1.2-.46.03-.45c.04-.59.03-1.18-.04-1.77l-.06-.45,1.17-.52c.55-.24.96-.68,1.18-1.24s.2-1.17-.04-1.71c-.24-.55-.68-.97-1.24-1.18-.56-.21-1.17-.2-1.71.04l-1.17.52-.3-.34c-.39-.45-.82-.86-1.28-1.22l-.36-.28.46-1.2c.44-1.15-.13-2.45-1.29-2.9Zm1.2,8.81c.7,1.42.84,3.04.39,4.56-.05.16-.1.33-.17.5-1.25,3.25-4.91,4.87-8.16,3.62-3.25-1.25-4.87-4.91-3.62-8.16.06-.17.14-.33.21-.49.68-1.42,1.87-2.52,3.34-3.11,1.48-.59,3.11-.6,4.6-.03,1.49.57,2.69,1.68,3.4,3.11Z"/>
      </g>
    </g>
  </g>
</svg>